<svg xmlns="http://www.w3.org/2000/svg" xmlns:xlink="http://www.w3.org/1999/xlink" width="71.95" height="71.869" viewBox="0 0 71.95 71.869">
  <defs>
    <linearGradient id="linear-gradient" x1="-0.402" y1="3.533" x2="1.402" y2="3.533" gradientUnits="objectBoundingBox">
      <stop offset="0" stop-color="#00a850"/>
      <stop offset="0.18" stop-color="#04a84f"/>
      <stop offset="0.36" stop-color="#10ab4e"/>
      <stop offset="0.55" stop-color="#25af4b"/>
      <stop offset="0.75" stop-color="#43b548"/>
      <stop offset="0.94" stop-color="#69bd44"/>
      <stop offset="1" stop-color="#76c043"/>
    </linearGradient>
  </defs>
  <g id="Pflower" transform="translate(-504.725 -314.035)">
    <path id="Path_2" data-name="Path 2" d="M4.5,0H5.75a4.5,4.5,0,0,1,4.5,4.5V21.3a4.5,4.5,0,0,1-4.5,4.5H4.5A4.5,4.5,0,0,1,0,21.3V4.5A4.5,4.5,0,0,1,4.5,0Z" transform="translate(535.5 360.103)" fill="url(#linear-gradient)"/>
    <path id="Path_6" data-name="Path 6" d="M4.5,0H5.75a4.5,4.5,0,0,1,4.5,4.5V21.3a4.5,4.5,0,0,1-4.5,4.5H4.5A4.5,4.5,0,0,1,0,21.3V4.5A4.5,4.5,0,0,1,4.5,0Z" transform="translate(530.525 344.669) rotate(90)" fill="url(#linear-gradient)"/>
    <path id="Path_7" data-name="Path 7" d="M4.5,0H5.75a4.5,4.5,0,0,1,4.5,4.5V21.3a4.5,4.5,0,0,1-4.5,4.5H4.5A4.5,4.5,0,0,1,0,21.3V4.5A4.5,4.5,0,0,1,4.5,0Z" transform="translate(576.675 345.019) rotate(90)" fill="url(#linear-gradient)"/>
    <path id="Path_4" data-name="Path 4" d="M4.5,0H5.75a4.5,4.5,0,0,1,4.5,4.5V21.3a4.5,4.5,0,0,1-4.5,4.5H4.5A4.5,4.5,0,0,1,0,21.3V4.5A4.5,4.5,0,0,1,4.5,0Z" transform="translate(536 314.035)" fill="url(#linear-gradient)"/>
    <path id="Path_3" data-name="Path 3" d="M5.3,0A5.3,5.3,0,1,1,0,5.3,5.3,5.3,0,0,1,5.3,0Z" transform="translate(535.4 344.669)" fill="url(#linear-gradient)"/>
  </g>
</svg>
