<?xml version="1.0" encoding="UTF-8"?><svg id="Calque_1" xmlns="http://www.w3.org/2000/svg" viewBox="0 0 308.84 308.84"><defs><style>.cls-1{fill:#00ce7d;}</style></defs><path class="cls-1" d="M159.96,159.87l68.9-68.9c8.73-8.57,20.36-13.3,32.72-13.3h0c-12.36,0-23.98,4.72-32.72,13.3l-68.9,68.9,68.95,68.94c9.12,9.12,21.09,13.68,33.06,13.68-11.97,0-23.94-4.56-33.06-13.68l-68.95-68.94Z"/><path class="cls-1" d="M47.26,77.67c-12.5,0-24.23,4.82-33.01,13.58-18.06,18.12-18.22,47.66-.35,65.85l2.75,2.82-2.82,2.74C4.99,171.51,.11,183.27,.11,195.75s4.86,24.23,13.7,33.06c18.23,18.24,47.89,18.24,66.12,0l68.95-68.94L79.98,90.97c-8.73-8.57-20.36-13.3-32.72-13.3Z"/><path class="cls-1" d="M308.73,195.75c0-12.49-4.88-24.24-13.73-33.1l-2.82-2.74,2.75-2.82c17.87-18.19,17.71-47.74-.35-65.85-8.78-8.76-20.51-13.58-33.01-13.58s-23.98,4.72-32.72,13.3l-68.9,68.9,68.95,68.94c9.12,9.12,21.09,13.68,33.06,13.68s23.94-4.56,33.06-13.68c8.83-8.83,13.7-20.57,13.7-33.06Z"/><path class="cls-1" d="M292.18,159.92l2.75-2.82c17.87-18.19,17.71-47.74-.35-65.85-8.78-8.76-20.51-13.58-33.01-13.58h0c12.5,0,24.23,4.82,33.01,13.58,18.06,18.12,18.22,47.66,.35,65.85l-2.75,2.82,2.82,2.74c8.85,8.85,13.73,20.61,13.73,33.1s-4.86,24.23-13.7,33.06c-9.12,9.12-21.09,13.68-33.06,13.68,11.97,0,23.94-4.56,33.06-13.68,8.83-8.83,13.7-20.57,13.7-33.06s-4.88-24.24-13.73-33.1l-2.82-2.74Z"/></svg>