<?xml version="1.0" encoding="UTF-8"?><svg id="Calque_1" xmlns="http://www.w3.org/2000/svg" viewBox="0 0 308.84 308.84"><defs><style>.cls-1{fill:#ffc62b;}</style></defs><path class="cls-1" d="M47.29,102.4c-12.5,0-24.22,4.82-33,13.57-18.06,18.11-18.22,47.65-.35,65.84l2.75,2.81-2.82,2.74C5.03,196.21,.15,207.96,.15,220.45s4.86,24.22,13.69,33.05c18.23,18.24,47.88,18.24,66.11,0l68.93-68.92L80,115.7c-8.73-8.57-20.35-13.3-32.71-13.3Z"/><path class="cls-1" d="M81.36,105.23c-.92-1.24-1.78-2.53-2.57-3.85,.79,1.32,1.65,2.61,2.57,3.85Z"/><path class="cls-1" d="M85.82,44.43c18.11-18.06,47.65-18.22,65.84-.35l2.81,2.75,2.74-2.82c8.85-8.85,20.6-13.72,33.09-13.72s24.22,4.86,33.05,13.69c.76,.76,1.49,1.56,2.19,2.36-.7-.8-1.42-1.59-2.19-2.36-8.83-8.83-20.56-13.69-33.05-13.69s-24.24,4.88-33.09,13.72l-2.74,2.82-2.81-2.75c-18.19-17.86-47.72-17.7-65.84,.35-8.75,8.78-13.57,20.5-13.57,33,0,8.5,2.23,16.64,6.41,23.74-4.18-7.1-6.41-15.25-6.41-23.74,0-12.5,4.82-24.22,13.57-33Z"/><path class="cls-1" d="M292.15,184.62l2.75-2.81c17.86-18.19,17.7-47.72-.35-65.84-8.78-8.75-20.5-13.57-33-13.57s-23.98,4.72-32.71,13.3l-68.88,68.88,68.93,68.92c18.23,18.24,47.88,18.24,66.11,0,8.83-8.83,13.69-20.56,13.69-33.05s-4.88-24.24-13.72-33.09l-2.82-2.74Z"/><path class="cls-1" d="M154.42,179.02l68.92-68.93c17.47-17.46,18.19-45.4,2.19-63.75-.7-.8-1.42-1.59-2.19-2.36-8.83-8.83-20.56-13.69-33.05-13.69s-24.24,4.88-33.09,13.72l-2.74,2.82-2.81-2.75c-18.19-17.86-47.72-17.7-65.84,.35-8.75,8.78-13.57,20.5-13.57,33,0,8.5,2.23,16.64,6.41,23.74,.04,.07,.09,.14,.13,.21,.79,1.32,1.65,2.61,2.57,3.85,1.27,1.72,2.66,3.36,4.18,4.9l68.88,68.88Z"/><path class="cls-1" d="M225.53,46.34c16.01,18.34,15.29,46.28-2.19,63.75l-68.92,68.93L85.54,110.14c-1.52-1.55-2.91-3.19-4.18-4.9,1.27,1.72,2.66,3.36,4.18,4.9l68.88,68.88,68.92-68.93c17.47-17.46,18.19-45.4,2.19-63.75Z"/><path class="cls-1" d="M78.79,101.38c-.04-.07-.09-.14-.13-.21,.04,.07,.09,.14,.13,.21Z"/></svg>