<?xml version="1.0" encoding="UTF-8"?>
<svg id="Layer_1" data-name="Layer 1" xmlns="http://www.w3.org/2000/svg" xmlns:xlink="http://www.w3.org/1999/xlink" viewBox="0 0 287.11 104.29">
  <defs>
    <style>
      .cls-1 {
        fill: url(#linear-gradient);
      }

      .cls-1, .cls-2, .cls-3 {
        stroke-width: 0px;
      }

      .cls-2 {
        fill: url(#linear-gradient-2);
      }
    </style>
    <linearGradient id="linear-gradient" x1="38.22" y1="56.99" x2="68.33" y2="56.99" gradientTransform="translate(70.92 132.98) rotate(-150)" gradientUnits="userSpaceOnUse">
      <stop offset="0" stop-color="#00a850"/>
      <stop offset=".18" stop-color="#04a84f"/>
      <stop offset=".36" stop-color="#10ab4e"/>
      <stop offset=".55" stop-color="#25af4b"/>
      <stop offset=".75" stop-color="#43b548"/>
      <stop offset=".94" stop-color="#69bd44"/>
      <stop offset="1" stop-color="#76c043"/>
    </linearGradient>
    <linearGradient id="linear-gradient-2" x1="26.59" y1="67" x2="43.86" y2="67" gradientTransform="matrix(1,0,0,1,0,0)" xlink:href="#linear-gradient"/>
  </defs>
  <g>
    <path class="cls-3" d="M82.82,57.59c0-9.18,5.61-16.58,14.41-16.58,3.7,0,7.65,1.47,9.95,4.53v-3.89h8.36v31.89h-8.36v-3.83c-2.23,3.06-6.25,4.46-9.95,4.46-8.8,0-14.41-7.4-14.41-16.58ZM107,57.59c0-4.98-3.19-8.67-7.59-8.67s-7.91,3.7-7.91,8.67,3.32,8.67,7.91,8.67,7.59-3.57,7.59-8.67Z"/>
    <path class="cls-3" d="M122.05,41.64h8.36v4.27c1.85-2.87,5.61-4.91,9.44-4.91,5.04,0,8.16,2.1,9.82,5.68,2.3-3.83,6.7-5.68,10.33-5.68,8.99,0,11.8,6.19,11.8,14.35v18.18h-8.55v-17.09c0-4.21-1.02-7.33-5.55-7.33-4.21,0-6.51,3.38-6.51,7.59v16.84h-8.55v-17.09c0-4.21-.96-7.33-5.55-7.33-4.34,0-6.51,3.7-6.51,7.91v16.52h-8.55v-31.89Z"/>
    <path class="cls-3" d="M177.03,32.71c0-2.81,2.3-5.1,5.04-5.1s5.1,2.3,5.1,5.1-2.3,5.04-5.1,5.04-5.04-2.3-5.04-5.04ZM177.86,41.64h8.55v31.89h-8.55v-31.89Z"/>
    <path class="cls-3" d="M192.91,41.64h8.36v4.27c2.55-3.51,6.19-4.91,10.08-4.91,8.42,0,11.35,5.42,11.35,14.16v18.37h-8.55v-17.28c0-4.66-1.21-7.14-5.55-7.14s-7.14,3.44-7.14,8.29v16.14h-8.55v-31.89Z"/>
    <path class="cls-3" d="M227.8,57.59c0-9.18,5.61-16.58,14.42-16.58,3.7,0,7.65,1.47,9.95,4.53v-3.89h8.36v31.89h-8.36v-3.83c-2.23,3.06-6.25,4.46-9.95,4.46-8.8,0-14.42-7.4-14.42-16.58ZM251.98,57.59c0-4.98-3.19-8.67-7.59-8.67s-7.91,3.7-7.91,8.67,3.32,8.67,7.91,8.67,7.59-3.57,7.59-8.67Z"/>
  </g>
  <g>
    <rect class="cls-1" x="44.93" y="35.98" width="16.69" height="42.01" rx="7.32" ry="7.32" transform="translate(127.91 79.71) rotate(150)"/>
    <circle class="cls-2" cx="35.22" cy="67" r="8.63"/>
  </g>
</svg>